<svg width="40" height="40" viewBox="0 0 40 40" fill="none" xmlns="http://www.w3.org/2000/svg">
<g clip-path="url(#clip0_3_7)">
<path d="M20.2187 39.625C9.40623 39.6719 0.515601 30.6719 0.773414 19.6797C1.0156 9.21092 9.68748 0.562487 20.4687 0.679674C31.1484 0.796862 39.9844 9.68749 39.6953 20.6953C39.4219 31.1172 30.8203 39.6797 20.2187 39.625ZM3.1406 20.1797C3.22654 29.9687 11.164 37.5078 20.539 37.3437C29.6172 37.1797 37.3125 29.7812 37.3125 20.1562C37.3125 10.3672 29.3125 2.79686 19.9062 2.97655C10.8281 3.14061 3.2031 10.5625 3.1406 20.1797Z" fill="#157439"/>
<path d="M16.1562 33.8594C16.1562 29.2578 16.1562 24.6953 16.1562 20.0859C15.1406 20.0859 14.1562 20.0859 13.1484 20.0859C13.1484 18.5234 13.1484 17.0078 13.1484 15.4453C13.2813 15.4375 13.4141 15.4219 13.5547 15.4219C14.2812 15.4219 15.0156 15.4062 15.7422 15.4297C16.0625 15.4375 16.1719 15.3516 16.1641 15.0234C16.1484 13.8359 16.1484 12.6563 16.1562 11.4688C16.1641 10.1328 16.5391 8.92188 17.4922 7.95313C18.4141 7.01563 19.5938 6.50781 20.875 6.42969C22.9375 6.3125 25.0078 6.32812 27.0781 6.28906C27.1016 6.28906 27.125 6.3125 27.1719 6.33594C27.1719 7.90625 27.1719 9.48438 27.1719 11.1016C27.0234 11.1094 26.8828 11.1172 26.75 11.1172C25.8125 11.1172 24.875 11.1172 23.9375 11.1172C22.9922 11.125 22.4375 11.6875 22.4375 12.6172C22.4375 13.5 22.4375 14.3906 22.4453 15.2734C22.4453 15.2969 22.4609 15.3203 22.4844 15.4062C24.0312 15.4062 25.5938 15.4062 27.2344 15.4062C27.0313 16.9922 26.8437 18.5078 26.6406 20.0781C25.2266 20.0781 23.8437 20.0781 22.4219 20.0781C22.4219 24.7031 22.4219 29.2813 22.4219 33.875C20.3203 33.8594 18.2734 33.8594 16.1562 33.8594Z" fill="#157439"/>
</g>
<defs>
<clipPath id="clip0_3_7">
<rect width="40" height="40" fill="white"/>
</clipPath>
</defs>
</svg>
