<svg width="627" height="333" viewBox="0 0 627 333" fill="none" xmlns="http://www.w3.org/2000/svg">
<path d="M98.8525 23.283C85.6455 32.3525 63.2336 55.2293 55.4961 67.5476C46.4247 81.761 39.2208 97.1927 40.6883 98.6817C41.4887 99.3586 43.3564 100.306 44.8238 100.712C47.3585 101.524 48.4257 100.035 53.8953 89.2061C66.5687 63.8927 85.9123 42.5049 109.658 27.6147C113.26 25.4488 116.062 23.0122 116.062 22.2C116.062 20.4403 111.659 16.2439 109.925 16.3793C109.258 16.3793 104.322 19.4927 98.8525 23.283Z" fill="#113D22"/>
<path d="M109.258 44.8061C100.453 51.1683 80.0425 72.6915 74.3061 81.6256C64.9678 95.839 60.0319 107.616 60.0319 115.061V121.829H64.701C68.4363 121.829 69.3702 121.288 69.3702 119.257C69.3702 115.196 77.6412 97.7342 84.4448 87.1756C87.7799 82.0317 95.5174 72.9622 101.654 67.1415C107.791 61.1854 115.261 54.011 118.463 50.8976L124.199 45.3476L121.131 43.0464C116.995 39.7976 116.062 39.9329 109.258 44.8061Z" fill="#113D22"/>
<path d="M176.36 48.7317C174.76 49.4086 172.758 51.5744 171.825 53.4695C170.757 55.7708 169.023 56.989 165.555 57.5305C159.818 58.4781 148.879 62.539 138.874 67.5476C129.536 72.0147 108.591 93.1317 102.054 104.367C95.5174 115.602 96.1845 117.768 102.855 106.939C110.059 95.2976 112.86 92.3195 117.929 91.2366C120.197 90.8305 124.733 88.1232 128.068 85.4159C142.209 73.9098 151.414 69.4427 169.023 65.5171C177.828 63.622 180.096 62.6744 181.296 59.9671C182.63 57.1244 183.431 56.8537 193.036 56.8537C203.575 56.8537 224.119 61.4561 224.119 63.7573C224.119 64.5695 222.918 67.5476 221.451 70.5256C219.45 74.4512 217.983 75.8049 216.382 75.2634C215.181 74.8573 210.512 73.639 206.11 72.2854C201.841 71.0671 197.438 69.172 196.371 68.2244C194.103 65.9232 181.163 65.7878 169.957 67.8183C160.085 69.7134 145.144 75.5342 140.341 79.3244C133.804 84.739 138.474 84.4683 149.68 78.7829C155.816 75.8049 161.286 73.7744 161.953 74.4512C162.486 74.9927 164.888 74.9927 167.156 74.3159C169.557 73.639 173.292 73.0976 175.56 73.0976C179.295 73.0976 179.829 73.5037 180.629 78.1061C181.03 80.9488 181.43 85.822 181.43 88.8C181.43 91.9134 181.83 96.3805 182.23 98.6817C183.031 102.337 183.698 102.878 187.433 102.878H191.702L192.769 89.3415C193.57 77.5647 193.97 75.8049 195.837 76.3464C197.038 76.6171 201.707 77.7 206.11 78.6476C210.512 79.5951 214.647 80.6781 215.181 81.2195C216.382 82.3025 210.378 95.2976 208.111 96.7866C207.31 97.3281 207.043 98.1403 207.444 98.8171C207.844 99.4939 207.444 101.524 206.51 103.555C205.042 106.939 204.642 107.074 197.838 106.127C193.036 105.585 190.768 105.721 190.768 106.804C190.768 107.616 189.034 108.293 186.766 108.293C180.363 108.293 181.43 111.135 188.367 112.895C191.302 113.572 191.702 113.301 191.168 111C190.635 109.105 191.168 108.293 192.636 108.293C193.97 108.293 194.637 108.834 194.237 109.376C193.836 110.052 195.304 110.323 197.305 109.917C199.439 109.646 201.44 109.917 201.841 110.594C202.241 111.135 199.84 117.362 196.638 124.401C193.436 131.44 190.768 137.938 190.768 138.885C190.768 139.833 192.102 141.593 193.703 142.676C197.171 145.248 214.781 145.654 218.916 143.488C220.25 142.676 223.185 138.615 225.32 134.418L229.055 126.702L231.19 130.087C232.257 131.846 234.258 136.584 235.458 140.374C236.793 144.3 238.26 147.143 239.06 146.737C239.727 146.331 241.862 143.488 243.73 140.374L247.198 134.689L248.932 138.75C249.866 140.916 250.667 145.112 250.8 147.82V152.828L240.528 153.234C230.389 153.64 230.122 153.776 229.722 157.16C229.188 161.627 231.59 162.439 245.197 162.439H254.802V166.771C254.802 170.155 254.402 170.696 253.468 169.207C252.534 167.718 251.734 168.395 250.133 172.591C244.263 187.346 239.594 195.062 232.257 201.966C218.916 214.555 217.582 215.367 206.376 218.345C198.372 220.511 197.705 220.24 200.907 215.909C202.508 213.743 203.308 213.607 205.309 214.826C207.444 216.179 207.977 216.044 208.644 214.42C209.044 213.337 209.978 212.66 210.645 213.066C215.181 216.044 234.791 199.259 241.195 187.076C246.398 177.329 246.398 175.976 241.995 175.976C237.593 175.976 233.457 173.674 233.457 171.238C233.457 167.854 230.789 168.937 229.455 172.862C225.72 183.421 216.115 195.468 216.115 189.512C216.115 188.7 217.049 188.159 218.116 188.159C220.917 188.159 222.785 183.691 222.518 177.735C222.385 172.727 222.385 172.727 221.851 176.923C221.584 179.36 220.784 181.39 219.984 181.39C218.783 181.39 218.383 178.277 218.65 171.915C218.783 168.666 218.783 168.666 217.049 172.591C214.781 177.6 203.842 187.888 203.041 185.722C202.774 184.774 201.841 184.504 201.04 185.045C199.84 185.722 189.567 188.023 189.301 187.617C189.301 187.617 189.034 184.91 188.634 181.796C187.967 176.517 188.1 176.246 191.835 175.299C197.572 174.081 199.84 171.102 197.171 168.395C195.571 166.635 194.503 166.5 192.369 167.718C188.5 169.749 188.1 169.613 187.967 166.094C187.833 163.928 187.566 164.334 186.766 167.448C186.232 169.884 185.032 172.862 184.098 173.945C182.897 175.299 182.897 175.976 183.964 175.976C185.565 175.976 185.966 185.045 184.631 188.7C184.231 189.918 182.764 190.866 181.563 190.866C179.696 191.001 179.829 191.272 181.963 192.896C184.498 194.791 184.365 194.927 179.962 195.062C177.428 195.198 176.494 195.468 177.828 195.874C180.096 196.551 181.03 198.988 178.895 198.988C177.027 198.988 176.094 204.944 177.828 206.162C180.763 208.193 168.756 205.485 163.954 203.049C161.419 201.695 157.284 198.717 154.749 196.416C151.814 193.709 149.68 192.761 148.746 193.573C147.812 194.385 146.478 193.979 145.01 192.22C141.142 187.617 135.139 174.081 134.471 168.395C133.671 162.845 133.671 162.71 138.607 161.898C141.275 161.491 146.078 161.085 149.146 161.085C153.815 161.085 155.149 160.544 155.683 158.378C156.483 155.4 158.751 154.723 158.751 157.295C158.751 158.513 159.285 158.378 160.085 157.024C161.152 155.265 161.419 155.4 161.419 157.295C161.419 159.055 162.486 159.732 165.288 159.732C168.223 159.732 169.423 160.544 170.757 163.657C171.558 165.823 173.692 168.937 175.56 170.696L178.762 173.674V170.696C178.762 169.072 177.294 165.688 175.427 163.251C173.559 160.679 172.358 157.837 172.758 156.889C173.559 154.723 174.76 154.859 147.412 153.64C136.473 153.099 127.268 152.557 127.134 152.422C127.001 152.287 127.401 149.985 127.935 147.278C129.002 142.676 128.869 142.27 125.267 140.645C120.731 138.75 120.864 137.802 126.867 124.943C129.269 119.934 133.938 113.437 138.474 108.834C144.477 102.743 145.411 101.389 142.743 102.066C140.875 102.607 137.14 105.45 134.471 108.428C129.802 113.572 129.536 113.707 128.068 111.135C124.6 104.502 118.863 110.188 112.727 126.432C111.393 129.816 109.925 132.252 109.391 131.982C108.458 131.305 106.457 135.366 104.722 141.728C103.522 145.924 103.522 166.365 104.722 172.05C105.123 174.622 106.857 180.172 108.458 184.368C111.259 191.949 113.394 194.385 113.394 190.054C113.394 187.346 116.195 188.294 117.929 191.678C121.531 198.582 128.602 208.463 129.802 208.463C130.603 208.463 133.004 206.839 135.139 204.673C138.607 201.424 139.007 201.289 138.207 203.861C137.273 206.839 137.54 207.11 148.346 215.909C152.481 219.293 160.619 223.083 170.757 226.061C176.227 227.821 181.03 229.31 181.163 229.581C181.43 229.716 181.296 231.746 180.763 233.912L179.962 237.838L171.691 236.213C167.156 235.401 161.019 233.641 158.217 232.423C155.283 231.07 152.748 230.393 152.348 230.799C151.28 231.746 151.814 232.017 162.486 235.943C180.629 242.711 208.377 240.274 225.053 230.663C232.79 226.196 229.722 226.061 220.517 230.393C215.581 232.829 207.577 235.401 202.508 236.213L193.436 237.838V233.371C193.436 228.633 195.571 227.415 198.506 230.393C199.573 231.476 200.106 231.476 200.106 230.528C200.106 229.716 201.707 228.633 203.708 228.091C205.709 227.685 209.845 226.061 213.047 224.572C216.115 223.218 219.183 222 219.85 222C220.517 222 221.985 221.052 222.918 219.834C223.852 218.616 225.987 217.127 227.588 216.585C229.989 215.638 237.726 207.245 248.399 193.709C249.733 192.22 251.6 190.866 252.668 190.866C257.604 190.866 262.94 175.57 264.007 158.107C264.407 150.933 265.208 144.706 265.741 144.165C266.141 143.623 269.877 143.894 274.012 144.841C282.283 146.601 293.089 145.112 300.426 141.322C311.366 135.637 314.701 131.576 324.172 112.083C329.242 101.795 334.311 90.1537 335.512 86.4988C337.646 80.1366 337.646 79.3244 335.512 73.7744C332.844 66.4647 325.506 62.2683 315.368 62.2683C299.893 62.2683 287.486 69.172 279.348 82.5732C276.68 87.0403 274.012 90.5598 273.612 90.4244C273.078 90.1537 269.877 86.9049 266.408 83.1147L260.138 76.211L264.14 75.3988C267.476 74.722 268.676 73.2329 271.611 66.7354C277.748 52.7927 277.748 53.0634 274.813 50.0854C272.411 47.6488 270.277 47.3781 253.335 47.3781H234.525L230.923 51.3037L227.321 55.2293L215.314 51.9805C202.241 48.461 181.163 46.5659 176.36 48.7317ZM270.811 56.1768C270.144 57.9366 268.276 61.8622 266.808 64.9756C264.14 70.3903 264.007 70.3903 256.27 70.3903H248.532L245.064 78.5122L241.595 86.6342H248.265C251.867 86.6342 254.802 86.9049 254.802 87.311C254.802 87.5817 253.201 91.2366 251.2 95.4329L247.598 102.878H240.795H233.991L225.72 120.746L217.582 138.75L206.777 139.156C200.907 139.427 196.104 139.156 196.104 138.615C196.104 138.209 204.909 118.716 215.581 95.2976L235.192 52.7927H253.601H272.145L270.811 56.1768ZM326.44 70.2549C334.444 75.2634 333.777 79.8659 321.104 107.074C309.498 132.117 300.56 139.698 282.017 139.968C262.006 140.104 260.672 133.2 274.946 102.878C286.152 79.3244 291.888 72.6915 304.162 68.9012C310.832 66.8708 322.038 67.5476 326.44 70.2549ZM266.141 104.909C266.542 106.398 265.474 111.135 263.74 115.467L260.538 123.318L255.603 115.873L250.8 108.563L254.268 100.848L257.737 93.1317L261.606 97.7342C263.74 100.171 265.741 103.42 266.141 104.909ZM110.726 169.207C110.726 169.884 110.192 170.561 109.391 170.561C108.724 170.561 108.057 169.884 108.057 169.207C108.057 168.395 108.724 167.854 109.391 167.854C110.192 167.854 110.726 168.395 110.726 169.207ZM216.115 180.037C214.914 182.202 215.048 182.473 216.782 181.932C220.651 180.443 218.783 185.045 214.114 188.7C211.579 190.731 209.445 191.678 209.445 190.866C209.445 190.054 210.378 189.106 211.446 188.7C212.513 188.159 213.18 187.346 212.78 186.67C212.38 186.128 211.046 185.993 209.711 186.399C208.244 187.076 208.778 185.722 211.446 182.473C215.848 177.059 218.383 175.705 216.115 180.037ZM202.641 209.682C197.972 215.232 195.304 216.721 196.638 213.201C197.038 212.118 196.771 211.171 196.104 211.171C195.304 211.171 194.77 211.712 194.77 212.524C194.77 215.096 191.302 213.878 191.168 211.306C191.035 209.276 192.102 208.463 196.504 207.787C199.573 207.245 203.041 206.298 204.108 205.621C207.444 203.726 207.31 204.132 202.641 209.682ZM182.764 211.171C182.764 212.66 182.23 213.878 181.43 213.878C180.763 213.878 180.096 212.66 180.096 211.171C180.096 209.682 180.763 208.463 181.43 208.463C182.23 208.463 182.764 209.682 182.764 211.171ZM159.551 214.826C158.751 215.638 154.749 213.607 154.749 212.389C154.749 211.712 155.95 211.848 157.417 212.795C158.751 213.743 159.818 214.69 159.551 214.826ZM168.089 218.481C168.089 218.751 166.889 218.751 165.421 218.345C163.954 217.939 162.753 217.127 162.753 216.315C162.753 215.638 163.954 215.773 165.421 216.585C166.889 217.398 168.089 218.21 168.089 218.481Z" fill="#113D22"/>
<path d="M301.093 91.6427C291.221 111.677 285.352 125.89 286.152 127.244C288.153 130.628 292.289 124.672 301.227 105.044C311.099 83.3854 312.166 79.8659 308.831 79.8659C307.63 79.8659 304.428 84.7391 301.093 91.6427Z" fill="#113D22"/>
<path d="M373.132 49.0025C370.997 50.6269 330.843 136.449 330.843 139.427C330.843 140.104 332.31 141.728 334.178 142.946C336.846 144.706 339.647 144.977 349.119 144.3C362.726 143.352 361.792 143.352 375.4 144.3C387.94 145.248 391.942 144.435 393.676 140.374C394.343 138.75 396.611 127.65 398.745 115.602L402.481 93.9439L417.288 74.9927C433.164 55.0939 434.898 51.033 428.761 48.7317C423.959 46.8366 409.551 47.1074 405.549 49.1378C402.881 50.6269 401.547 50.4915 398.879 49.1378C394.61 46.8366 376.067 46.8366 373.132 49.0025ZM396.211 54.1464C396.211 54.8232 393.276 61.8622 389.674 69.7135C386.072 77.5647 383.27 83.9269 383.537 83.9269C383.804 83.9269 388.073 78.6476 393.009 72.0147C408.084 52.2513 407.283 52.7927 417.822 52.7927C422.758 52.7927 426.894 53.0635 426.894 53.4696C426.894 54.011 420.223 62.8098 412.219 73.0976L397.411 91.9134L393.543 114.655C391.275 127.109 389.54 137.802 389.54 138.344C389.54 139.021 384.471 139.427 378.201 139.427C371.931 139.427 366.862 139.021 366.862 138.344C366.995 137.802 368.729 129.951 370.73 120.746C372.865 111.677 374.199 104.502 373.799 104.773C373.532 105.179 369.797 112.895 365.528 122.1L357.924 138.75L346.984 139.156C340.581 139.427 336.179 139.021 336.446 138.344C336.579 137.532 345.517 118.039 356.189 94.8915L375.533 52.7927H385.938C391.541 52.7927 396.211 53.3342 396.211 54.1464Z" fill="#113D22"/>
<path d="M528.548 48.3256C526.28 49.1378 517.608 66.7354 517.608 70.3903C517.608 72.2854 518.943 73.7744 521.611 74.9927L525.613 76.6171L507.603 100.577C484.791 130.763 480.255 140.645 487.726 143.488C491.995 145.248 525.746 145.248 530.015 143.623C533.75 142.134 542.155 124.401 540.954 120.34C540.421 118.987 538.286 117.362 536.152 116.685L532.15 115.738L548.291 94.7561C562.566 76.3464 567.502 68.3598 572.438 55.7708C573.371 53.4695 572.971 52.1159 570.97 50.0854C568.569 47.6488 566.568 47.3781 549.359 47.5134C538.82 47.5134 529.481 47.9195 528.548 48.3256ZM566.968 56.1769C563.633 65.111 558.43 73.0976 540.554 96.1098L521.21 121.152L528.814 121.559C532.95 121.829 536.285 122.235 536.285 122.641C536.285 122.912 534.417 126.838 532.283 131.305L528.281 139.427H508.937C496.397 139.427 489.594 138.885 489.594 138.073C489.594 134.283 496.931 123.183 515.874 98.2756L536.552 71.0671L529.615 70.661C524.946 70.3903 522.945 69.7134 523.345 68.6305C523.745 67.683 525.346 63.7573 526.947 59.8317L530.015 52.7927H549.092H568.302L566.968 56.1769Z" fill="#113D22"/>
<path d="M443.436 64.7049C440.768 66.4647 414.62 125.213 413.953 130.899C413.42 134.96 413.82 137.667 415.421 139.968C418.089 144.3 426.627 146.737 432.63 145.112C434.898 144.435 442.502 144.165 449.172 144.571C458.644 144.977 462.246 144.706 464.514 143.217C466.515 141.863 473.318 128.462 484.124 104.909C497.198 76.4817 500.399 68.3598 499.332 66.6C498.131 64.5695 494.53 64.2988 471.451 64.0281C456.91 63.8927 444.236 64.1634 443.436 64.7049ZM463.713 76.0756C461.979 80.0012 456.243 92.5903 451.04 104.096C445.704 115.467 441.701 125.755 442.102 126.838C443.969 131.576 448.639 124.401 461.045 97.4634L474.119 69.0366H484.524H494.796L492.929 73.3683C491.995 75.8049 484.791 91.5073 477.054 108.293L462.913 138.75L452.24 139.156C441.435 139.562 441.435 139.562 443.036 136.584L444.503 133.606L439.567 136.72C433.831 140.239 424.492 141.051 421.157 138.209C419.823 137.261 418.889 134.689 418.889 132.523C418.889 130.357 425.026 115.196 432.497 98.8171L446.104 69.0366H456.509H466.915L463.713 76.0756Z" fill="#113D22"/>
<path d="M145.01 112.624C137.14 120.476 129.402 131.305 129.402 134.418C129.402 134.554 131.003 134.824 133.004 134.689C135.806 134.689 137.406 133.471 139.407 129.951C143.143 123.454 156.35 110.459 161.419 108.293C166.088 106.398 165.421 104.909 159.151 103.555C155.149 102.743 154.215 103.42 145.01 112.624Z" fill="#113D22"/>
<path d="M187.166 117.362C182.897 118.174 183.031 123.183 187.166 123.183C189.434 123.183 190.234 122.371 190.501 119.799C190.635 117.904 190.635 116.55 190.368 116.55C190.234 116.685 188.767 117.091 187.166 117.362Z" fill="#113D22"/>
<path d="M185.432 132.388C185.432 138.75 187.433 140.104 188.5 134.283C188.9 132.117 188.5 129.816 187.3 128.598C185.699 126.973 185.432 127.379 185.432 132.388Z" fill="#113D22"/>
<path d="M186.366 147.549C186.766 149.038 187.3 150.256 187.566 150.256C187.833 150.256 188.1 149.038 188.1 147.549C188.1 146.06 187.566 144.841 186.899 144.841C186.232 144.841 185.966 146.06 186.366 147.549Z" fill="#113D22"/>
<path d="M274.946 152.016C274.279 153.64 273.212 160.95 272.411 168.124C271.611 175.299 270.01 183.015 268.943 185.316C267.742 187.482 266.808 190.054 266.808 190.866C266.808 191.678 264.407 196.551 261.472 201.695C255.469 212.118 255.202 213.337 258.404 216.856C260.538 219.293 260.272 219.699 253.068 226.602C248.932 230.528 242.262 236.078 238.393 238.785C231.056 243.659 229.055 246.366 230.122 249.479C230.923 251.51 214.381 257.872 205.709 258.955C202.508 259.361 199.573 259.902 199.306 260.309C199.039 260.579 199.173 262.61 199.573 264.911C200.373 268.837 200.507 268.972 206.51 268.295C215.314 267.348 234.525 259.902 245.864 252.999C251.067 249.75 259.204 243.388 263.874 239.056L272.278 231.07L269.343 227.956L266.408 224.707L272.011 216.45C277.614 208.193 281.483 194.927 278.681 193.844C276.947 193.167 277.214 191.407 279.348 189.241C281.35 187.076 282.283 181.255 283.617 163.793L284.551 152.287L280.282 150.662C276.414 149.173 275.88 149.309 274.946 152.016Z" fill="#113D22"/>
<path d="M64.4342 154.046C63.5004 154.588 62.9668 156.889 63.2336 159.055C63.5004 161.356 64.1674 167.718 64.701 173.268C65.6349 184.774 69.637 199.123 74.4396 209.14C82.7106 226.332 88.0468 234.183 91.5153 234.183C92.3157 234.183 93.9166 232.829 94.9838 231.34C96.7181 228.498 96.9849 228.633 102.988 235.807C112.86 247.584 141.142 265.452 152.081 266.941C156.75 267.483 157.017 264.776 152.481 263.828C147.678 262.881 133.404 255.435 124.733 249.615C116.328 243.929 110.726 238.65 100.987 227.009C96.5847 222 92.3157 217.939 91.3819 217.939C90.3147 217.939 88.0468 215.909 86.3125 213.472C78.7085 203.049 72.7053 183.421 71.2379 164.063C70.304 152.693 69.1034 151.068 64.4342 154.046Z" fill="#113D22"/>
<path d="M200.64 155.941C200.24 156.618 198.639 157.024 197.038 157.16C194.37 157.295 194.37 157.431 197.438 158.378C199.306 158.92 203.041 159.461 205.843 159.596C209.845 159.732 210.779 159.326 210.779 157.16C210.779 154.994 209.978 154.588 205.976 154.723C203.308 154.859 200.907 155.4 200.64 155.941Z" fill="#113D22"/>
<path d="M214.781 157.837C214.781 160.95 215.181 161.221 219.85 160.815C223.852 160.544 224.919 159.867 225.186 157.295C225.587 154.588 225.053 154.317 220.25 154.317C215.314 154.317 214.781 154.588 214.781 157.837Z" fill="#113D22"/>
<path d="M157.15 162.033C154.082 162.845 154.082 163.928 157.55 171.102C160.485 177.465 163.687 180.443 169.824 181.932C174.359 183.015 174.493 181.12 170.224 175.434C168.623 173.133 166.355 168.937 165.288 166.094C163.554 161.221 162.353 160.544 157.15 162.033Z" fill="#113D22"/>
<path d="M165.555 163.251C165.555 164.74 165.955 165.146 166.355 164.063C166.755 163.116 166.622 161.898 166.222 161.491C165.821 160.95 165.421 161.762 165.555 163.251Z" fill="#113D22"/>
<path d="M152.081 184.774C152.081 185.857 152.614 186.805 153.415 186.805C154.082 186.805 154.349 185.857 153.948 184.774C153.415 183.691 152.881 182.744 152.614 182.744C152.348 182.744 152.081 183.691 152.081 184.774Z" fill="#113D22"/>
<path d="M103.522 196.551C107.791 210.359 126.867 231.07 143.143 239.598C155.149 245.824 157.417 246.231 157.417 241.899C157.417 239.598 155.416 237.973 147.812 234.318C133.671 227.279 124.733 218.887 112.06 200.477C107.124 193.302 101.654 190.866 103.522 196.551Z" fill="#113D22"/>
<path d="M285.885 222.271C276.947 237.432 258.137 254.894 241.729 263.287C236.126 266.129 234.792 267.483 234.792 270.19V273.574L243.196 269.243C256.937 261.933 262.94 257.331 274.813 245.148C288.02 231.611 295.224 220.917 293.223 217.533C291.355 214.013 290.421 214.69 285.885 222.271Z" fill="#113D22"/>
<path d="M294.557 222.406C290.554 230.799 276.013 247.855 265.474 256.248C259.738 260.85 250 267.348 243.863 270.596C231.19 277.5 231.456 277.229 232.39 278.312C233.858 279.666 254.402 268.16 265.208 260.038C271.077 255.435 278.948 248.126 282.684 243.794C289.22 236.213 298.826 221.459 298.826 219.022C298.826 216.45 296.424 218.345 294.557 222.406Z" fill="#113D22"/>
<path d="M295.757 238.109C291.355 245.689 274.946 262.068 264.807 268.972C253.602 276.688 237.46 285.081 231.857 286.299C227.321 287.246 227.054 289.954 231.19 292.796C234.125 294.692 235.058 294.421 246.931 288.735C263.607 280.749 273.345 273.845 285.885 261.392C295.49 252.051 308.164 236.89 308.164 234.995C308.164 234.589 305.896 234.183 303.095 234.183C298.959 234.183 297.625 234.86 295.757 238.109Z" fill="#113D22"/>
</svg>
