<svg width="150" height="80" viewBox="0 0 150 80" fill="none" xmlns="http://www.w3.org/2000/svg">
<path d="M16.4405 1.99135C12.7196 4.60622 6.40545 11.2019 4.22556 14.7535C1.66982 18.8514 -0.359731 23.3006 0.0536968 23.7299C0.279203 23.925 0.805384 24.1982 1.21881 24.3153C1.93291 24.5495 2.23359 24.1202 3.77455 20.9979C7.34506 13.6997 12.7948 7.53331 19.4848 3.24024C20.4996 2.61579 21.2889 1.91329 21.2889 1.67912C21.2889 1.17176 20.0486 -0.0381034 19.56 0.000924531C19.3721 0.000924531 17.9814 0.898566 16.4405 1.99135Z" fill="#157439"/>
<path d="M19.372 8.19674C16.8915 10.0311 11.1411 16.2365 9.52494 18.8123C6.89404 22.9103 5.50342 26.3057 5.50342 28.4522V30.4036H6.81887C7.87123 30.4036 8.13432 30.2475 8.13432 29.6621C8.13432 28.4913 10.4646 23.4567 12.3814 20.4125C13.321 18.9294 15.5009 16.3145 17.2297 14.6363C18.9586 12.9191 21.0633 10.8506 21.9654 9.953L23.5815 8.35286L22.7171 7.68938C21.5519 6.75271 21.2888 6.79174 19.372 8.19674Z" fill="#157439"/>
<path d="M38.277 9.32856C37.826 9.5237 37.2622 10.1481 36.9991 10.6945C36.6985 11.358 36.2099 11.7093 35.2327 11.8654C33.6166 12.1386 30.5346 13.3094 27.7158 14.7534C25.0849 16.0414 19.1842 22.1297 17.3425 25.369C15.5009 28.6083 15.6888 29.2328 17.568 26.1106C19.5976 22.7542 20.3869 21.8955 21.8151 21.5833C22.454 21.4662 23.7319 20.6857 24.6715 19.9051C28.6554 16.5878 31.2487 15.2998 36.2099 14.168C38.6904 13.6216 39.3294 13.3484 39.6676 12.5679C40.0435 11.7483 40.269 11.6702 42.9751 11.6702C45.9442 11.6702 51.7322 12.9972 51.7322 13.6607C51.7322 13.8948 51.394 14.7534 50.9805 15.6121C50.4168 16.7439 50.0033 17.1341 49.5523 16.978C49.2141 16.8609 47.8986 16.5097 46.6583 16.1194C45.4556 15.7682 44.2153 15.2218 43.9147 14.9486C43.2757 14.2851 39.6301 14.2461 36.473 14.8315C33.6917 15.3779 29.4823 17.0561 28.1292 18.1489C26.2876 19.71 27.6031 19.6319 30.7601 17.9928C32.489 17.1341 34.03 16.5487 34.2179 16.7439C34.3682 16.9 35.0448 16.9 35.6837 16.7048C36.3602 16.5097 37.4126 16.3536 38.0515 16.3536C39.1039 16.3536 39.2542 16.4707 39.4797 17.7976C39.5925 18.6172 39.7052 20.0222 39.7052 20.8808C39.7052 21.7785 39.818 23.0664 39.9307 23.7299C40.1562 24.7836 40.3442 24.9397 41.3965 24.9397H42.5992L42.8999 21.0369C43.1254 17.6415 43.2381 17.1341 43.7643 17.2903C44.1026 17.3683 45.418 17.6805 46.6583 17.9537C47.8986 18.2269 49.0637 18.5391 49.2141 18.6953C49.5523 19.0075 47.861 22.7542 47.2221 23.1835C46.9966 23.3396 46.9214 23.5737 47.0342 23.7689C47.1469 23.964 47.0342 24.5494 46.7711 25.1349C46.3576 26.1106 46.2449 26.1496 44.3281 25.8764C42.9751 25.7203 42.3361 25.7593 42.3361 26.0715C42.3361 26.3057 41.8475 26.5008 41.2086 26.5008C39.4045 26.5008 39.7052 27.3204 41.6596 27.8278C42.4865 28.0229 42.5992 27.9449 42.4489 27.2814C42.2985 26.735 42.4489 26.5008 42.8623 26.5008C43.2381 26.5008 43.4261 26.657 43.3133 26.8131C43.2006 27.0082 43.614 27.0863 44.1778 26.9692C44.7791 26.8911 45.3429 26.9692 45.4556 27.1643C45.5684 27.3204 44.8919 29.1157 43.9898 31.1452C43.0878 33.1746 42.3361 35.048 42.3361 35.3211C42.3361 35.5943 42.712 36.1017 43.163 36.4139C44.1402 37.1555 49.1013 37.2725 50.2664 36.6481C50.6423 36.4139 51.4691 35.2431 52.0705 34.0332L53.1228 31.8086L53.7242 32.7843C54.0249 33.2917 54.5886 34.6577 54.9269 35.7505C55.3027 36.8823 55.7162 37.7018 55.9417 37.5848C56.1296 37.4677 56.7309 36.6481 57.2571 35.7505L58.2343 34.1113L58.7229 35.2821C58.986 35.9066 59.2115 37.1164 59.2491 37.897V39.341L56.3551 39.4581C53.4987 39.5752 53.4235 39.6142 53.3108 40.5899C53.1604 41.8778 53.8369 42.112 57.6705 42.112H60.3766V43.3609C60.3766 44.3366 60.2639 44.4927 60.0008 44.0634C59.7377 43.6341 59.5122 43.8292 59.0612 45.0391C57.4074 49.2931 56.092 51.5177 54.0249 53.5082C50.2664 57.1377 49.8906 57.3719 46.7335 58.2305C44.4784 58.855 44.2905 58.7769 45.1925 57.528C45.6435 56.9036 45.8691 56.8646 46.4328 57.2158C47.0342 57.6061 47.1845 57.5671 47.3724 57.0987C47.4852 56.7865 47.7483 56.5914 47.9362 56.7084C49.2141 57.5671 54.739 52.7276 56.543 49.2151C58.0088 46.4051 58.0088 46.0148 56.7685 46.0148C55.5282 46.0148 54.3631 45.3513 54.3631 44.6488C54.3631 43.6731 53.6114 43.9853 53.2356 45.1172C52.1832 48.1613 49.4772 51.6348 49.4772 49.9176C49.4772 49.6834 49.7402 49.5273 50.0409 49.5273C50.8302 49.5273 51.3564 48.2394 51.2812 46.5222C51.2436 45.0781 51.2436 45.0781 51.0933 46.288C51.0181 46.9905 50.7926 47.5759 50.5671 47.5759C50.2288 47.5759 50.1161 46.6783 50.1913 44.844C50.2288 43.9073 50.2288 43.9073 49.7402 45.0391C49.1013 46.4831 46.0194 49.4493 45.7939 48.8248C45.7187 48.5516 45.4556 48.4736 45.2301 48.6297C44.8919 48.8248 41.9979 49.4883 41.9227 49.3712C41.9227 49.3712 41.8475 48.5906 41.7348 47.693C41.5469 46.1709 41.5844 46.0929 42.6368 45.8197C44.2529 45.4684 44.8919 44.6098 44.1402 43.8292C43.6892 43.3219 43.3885 43.2828 42.7871 43.6341C41.6972 44.2195 41.5844 44.1805 41.5469 43.1658C41.5093 42.5413 41.4341 42.6584 41.2086 43.556C41.0583 44.2585 40.72 45.1172 40.4569 45.4294C40.1186 45.8197 40.1186 46.0148 40.4193 46.0148C40.8703 46.0148 40.9831 48.6297 40.6072 49.6834C40.4945 50.0347 40.0811 50.3079 39.7428 50.3079C39.2166 50.3469 39.2542 50.4249 39.8556 50.8933C40.5697 51.4397 40.5321 51.4787 39.2918 51.5177C38.5777 51.5568 38.3146 51.6348 38.6904 51.7519C39.3294 51.947 39.5925 52.6495 38.9911 52.6495C38.4649 52.6495 38.2018 54.3668 38.6904 54.718C39.5173 55.3034 36.1347 54.5229 34.7817 53.8204C34.0676 53.4301 32.9025 52.5715 32.1883 51.908C31.3615 51.1275 30.7601 50.8543 30.4971 51.0884C30.234 51.3226 29.8581 51.2055 29.4447 50.6981C28.3547 49.3712 26.6634 45.4684 26.4755 43.8292C26.25 42.2291 26.25 42.1901 27.6406 41.9559C28.3923 41.8388 29.7454 41.7217 30.6098 41.7217C31.9253 41.7217 32.3011 41.5656 32.4514 40.9412C32.6769 40.0826 33.3159 39.8874 33.3159 40.6289C33.3159 40.9802 33.4662 40.9412 33.6917 40.5509C33.9924 40.0435 34.0676 40.0826 34.0676 40.6289C34.0676 41.1363 34.3682 41.3314 35.1575 41.3314C35.9844 41.3314 36.3226 41.5656 36.6985 42.4633C36.924 43.0877 37.5253 43.9853 38.0515 44.4927L38.9535 45.3513V44.4927C38.9535 44.0244 38.5401 43.0487 38.0139 42.3462C37.4877 41.6046 37.1495 40.7851 37.2622 40.5119C37.4877 39.8874 37.826 39.9264 30.1212 39.5752C27.0393 39.4191 24.446 39.263 24.4084 39.2239C24.3708 39.1849 24.4836 38.5214 24.6339 37.7409C24.9346 36.4139 24.897 36.2968 23.8822 35.8285C22.6043 35.2821 22.6419 35.0089 24.3332 31.3013C25.0097 29.8572 26.3252 27.9839 27.6031 26.657C29.2944 24.9007 29.5574 24.5104 28.8058 24.7056C28.2796 24.8617 27.2272 25.6813 26.4755 26.5399C25.1601 28.0229 25.0849 28.062 24.6715 27.3204C23.6943 25.4081 22.0782 27.0472 20.3493 31.7306C19.9734 32.7063 19.56 33.4088 19.4097 33.3307C19.1466 33.1356 18.5828 34.3064 18.0942 36.1407C17.756 37.3506 17.756 43.2438 18.0942 44.883C18.207 45.6245 18.6956 47.2247 19.1466 48.4345C19.9358 50.6201 20.5372 51.3226 20.5372 50.0737C20.5372 49.2931 21.3265 49.5663 21.8151 50.542C22.8298 52.5325 24.8218 55.3815 25.1601 55.3815C25.3856 55.3815 26.0621 54.9132 26.6634 54.2887C27.6406 53.352 27.7534 53.313 27.5279 54.0545C27.2648 54.9132 27.34 54.9912 30.3843 57.528C31.5494 58.5037 33.8421 59.5965 36.6985 60.4551C38.2394 60.9625 39.5925 61.3918 39.6301 61.4698C39.7052 61.5089 39.6676 62.0943 39.5173 62.7187L39.2918 63.8506L36.9616 63.3822C35.6837 63.148 33.9548 62.6407 33.1655 62.2894C32.3387 61.8992 31.6246 61.704 31.5118 61.8211C31.2112 62.0943 31.3615 62.1724 34.3682 63.3042C39.4797 65.2556 47.2973 64.5531 51.9953 61.7821C54.1752 60.4941 53.3108 60.4551 50.7174 61.704C49.3268 62.4065 47.0718 63.148 45.6435 63.3822L43.0878 63.8506V62.5626C43.0878 61.1967 43.6892 60.8454 44.516 61.704C44.8167 62.0162 44.967 62.0162 44.967 61.743C44.967 61.5089 45.418 61.1967 45.9818 61.0405C46.5456 60.9235 47.7107 60.4551 48.6127 60.0258C49.4772 59.6355 50.3416 59.2843 50.5295 59.2843C50.7174 59.2843 51.1309 59.0111 51.394 58.6598C51.657 58.3086 52.2584 57.8793 52.7094 57.7232C53.3859 57.45 55.5658 55.0302 58.5726 51.1275C58.9484 50.6981 59.4746 50.3079 59.7753 50.3079C61.1659 50.3079 62.6693 45.8977 62.9699 40.8631C63.0827 38.7946 63.3082 36.9993 63.4585 36.8432C63.5713 36.6871 64.6236 36.7652 65.7888 37.0384C68.119 37.5457 71.1633 37.1164 73.2305 36.0236C76.3124 34.3845 77.252 33.2136 79.9205 27.5936C81.3487 24.6275 82.7769 21.2711 83.1151 20.2173C83.7165 18.383 83.7165 18.1489 83.1151 16.5487C82.3635 14.4412 80.2963 13.2314 77.4399 13.2314C73.0801 13.2314 69.5848 15.2218 67.2921 19.0855C66.5404 20.3735 65.7888 21.3882 65.676 21.3492C65.5257 21.2711 64.6236 20.3344 63.6465 19.2416L61.88 17.2512L63.0075 17.0171C63.9471 16.8219 64.2854 16.3926 65.1122 14.5193C66.8411 10.4994 66.8411 10.5775 66.0143 9.71884C65.3377 9.01634 64.7364 8.93828 59.9632 8.93828H54.6638L53.649 10.0701L52.6342 11.2019L49.2516 10.2652C45.5684 9.2505 39.6301 8.70411 38.277 9.32856ZM64.8867 11.4751C64.6988 11.9825 64.1726 13.1143 63.7592 14.0119C63.0075 15.573 62.9699 15.573 60.79 15.573H58.6101L57.633 17.9147L56.6558 20.2564H58.535C59.5498 20.2564 60.3766 20.3344 60.3766 20.4515C60.3766 20.5296 59.9256 21.5833 59.3618 22.7932L58.3471 24.9397H56.4303H54.5135L52.1832 30.0914L49.8906 35.2821L46.8462 35.3992C45.1925 35.4773 43.8395 35.3992 43.8395 35.2431C43.8395 35.126 46.3201 29.506 49.3268 22.7542L54.8517 10.4994H60.0384H65.2626L64.8867 11.4751ZM80.5594 15.534C82.8145 16.978 82.6266 18.305 79.056 26.1496C75.7862 33.3698 73.268 35.5553 68.0438 35.6334C62.4062 35.6724 62.0303 33.682 66.0519 24.9397C69.2089 18.1489 70.8251 16.2365 74.2828 15.1437C76.162 14.5583 79.3191 14.7534 80.5594 15.534ZM63.5713 25.5251C63.684 25.9544 63.3834 27.3204 62.8948 28.5693L61.9927 30.8329L60.6021 28.6864L59.2491 26.5789L60.2263 24.3543L61.2035 22.1297L62.2934 23.4567C62.8948 24.1592 63.4585 25.0958 63.5713 25.5251ZM19.7855 44.0634C19.7855 44.2585 19.6352 44.4537 19.4097 44.4537C19.2217 44.4537 19.0338 44.2585 19.0338 44.0634C19.0338 43.8292 19.2217 43.6731 19.4097 43.6731C19.6352 43.6731 19.7855 43.8292 19.7855 44.0634ZM49.4772 47.1856C49.1389 47.8101 49.1765 47.8881 49.6651 47.732C50.755 47.3027 50.2288 48.6297 48.9134 49.6834C48.1993 50.2688 47.5979 50.542 47.5979 50.3079C47.5979 50.0737 47.861 49.8005 48.1617 49.6834C48.4624 49.5273 48.6503 49.2931 48.5375 49.098C48.4248 48.9419 48.0489 48.9029 47.6731 49.0199C47.2597 49.2151 47.41 48.8248 48.1617 47.8881C49.402 46.327 50.1161 45.9367 49.4772 47.1856ZM45.6811 55.7327C44.3657 57.3329 43.614 57.7622 43.9898 56.7475C44.1026 56.4352 44.0274 56.1621 43.8395 56.1621C43.614 56.1621 43.4637 56.3182 43.4637 56.5523C43.4637 57.2939 42.4865 56.9426 42.4489 56.2011C42.4113 55.6157 42.712 55.3815 43.9523 55.1864C44.8167 55.0302 45.7939 54.757 46.0946 54.5619C47.0342 54.0155 46.9966 54.1326 45.6811 55.7327ZM40.0811 56.1621C40.0811 56.5914 39.9307 56.9426 39.7052 56.9426C39.5173 56.9426 39.3294 56.5914 39.3294 56.1621C39.3294 55.7327 39.5173 55.3815 39.7052 55.3815C39.9307 55.3815 40.0811 55.7327 40.0811 56.1621ZM33.5414 57.2158C33.3159 57.45 32.1883 56.8646 32.1883 56.5133C32.1883 56.3182 32.5266 56.3572 32.94 56.6304C33.3159 56.9036 33.6166 57.1768 33.5414 57.2158ZM35.9468 58.2696C35.9468 58.3476 35.6085 58.3476 35.1951 58.2305C34.7817 58.1134 34.4434 57.8793 34.4434 57.6451C34.4434 57.45 34.7817 57.489 35.1951 57.7232C35.6085 57.9573 35.9468 58.1915 35.9468 58.2696Z" fill="#157439"/>
<path d="M73.4184 21.7004C70.6371 27.4765 68.9834 31.5745 69.2089 31.9648C69.7727 32.9405 70.9378 31.2232 73.456 25.5642C76.2372 19.3197 76.5379 18.305 75.5983 18.305C75.26 18.305 74.358 19.71 73.4184 21.7004Z" fill="#157439"/>
<path d="M93.7139 9.40664C93.1126 9.87498 81.7997 34.6187 81.7997 35.4773C81.7997 35.6724 82.2131 36.1408 82.7393 36.492C83.491 36.9994 84.2803 37.0774 86.9487 36.8823C90.7823 36.6091 90.5193 36.6091 94.3529 36.8823C97.8858 37.1555 99.0133 36.9213 99.5019 35.7505C99.6898 35.2821 100.329 32.0819 100.93 28.6084L101.982 22.3639L106.154 16.9C110.627 11.1629 111.115 9.99206 109.387 9.32859C108.034 8.78219 103.974 8.86025 102.847 9.44567C102.095 9.87498 101.719 9.83595 100.968 9.44567C99.765 8.78219 94.5408 8.78219 93.7139 9.40664ZM100.216 10.8897C100.216 11.0848 99.3892 13.1143 98.3744 15.3779C97.3596 17.6415 96.5703 19.4758 96.6455 19.4758C96.7207 19.4758 97.9234 17.9538 99.314 16.0414C103.561 10.3433 103.336 10.4994 106.305 10.4994C107.695 10.4994 108.86 10.5775 108.86 10.6946C108.86 10.8507 106.981 13.3875 104.726 16.3536L100.554 21.7785L99.4643 28.3352C98.8254 31.9257 98.3368 35.0089 98.3368 35.1651C98.3368 35.3602 96.9086 35.4773 95.1421 35.4773C93.3757 35.4773 91.9475 35.3602 91.9475 35.1651C91.985 35.0089 92.4736 32.7453 93.0374 30.0914C93.6388 27.4766 94.0146 25.4081 93.9018 25.4861C93.8267 25.6032 92.7743 27.8278 91.5716 30.4817L89.4293 35.2821L86.3474 35.3992C84.5433 35.4773 83.3031 35.3602 83.3782 35.1651C83.4158 34.9309 85.934 29.3109 88.9407 22.6371L94.3904 10.4994H97.322C98.9006 10.4994 100.216 10.6555 100.216 10.8897Z" fill="#157439"/>
<path d="M137.5 9.21153C136.861 9.44569 134.418 14.5193 134.418 15.5731C134.418 16.1195 134.794 16.5488 135.545 16.9L136.673 17.3684L131.599 24.2763C125.172 32.9795 123.894 35.8286 125.999 36.6481C127.202 37.1555 136.71 37.1555 137.913 36.6872C138.965 36.2579 141.333 31.1452 140.995 29.9744C140.845 29.5841 140.243 29.1158 139.642 28.9206L138.514 28.6474L143.062 22.5981C147.084 17.2903 148.474 14.9877 149.865 11.3581C150.128 10.6946 150.015 10.3043 149.451 9.71889C148.775 9.01639 148.211 8.93833 143.363 8.97736C140.394 8.97736 137.763 9.09444 137.5 9.21153ZM148.324 11.4751C147.384 14.051 145.919 16.3536 140.882 22.9884L135.432 30.2085L137.575 30.3256C138.74 30.4037 139.68 30.5208 139.68 30.6378C139.68 30.7159 139.153 31.8477 138.552 33.1356L137.424 35.4773H131.975C128.442 35.4773 126.525 35.3212 126.525 35.087C126.525 33.9942 128.592 30.794 133.929 23.6128L139.755 15.7682L137.8 15.6511C136.485 15.5731 135.921 15.3779 136.034 15.0657C136.147 14.7925 136.598 13.6607 137.049 12.5289L137.913 10.4994H143.288H148.7L148.324 11.4751Z" fill="#157439"/>
<path d="M113.521 13.9339C112.769 14.4412 105.403 31.3793 105.215 33.0185C105.064 34.1894 105.177 34.9699 105.628 35.6334C106.38 36.8823 108.785 37.5848 110.477 37.1164C111.115 36.9213 113.258 36.8433 115.137 36.9603C117.806 37.0774 118.82 36.9994 119.459 36.5701C120.023 36.1798 121.94 32.316 124.984 25.5252C128.667 17.3293 129.569 14.9876 129.269 14.4803C128.93 13.8948 127.916 13.8168 121.414 13.7387C117.317 13.6997 113.746 13.7778 113.521 13.9339ZM119.234 17.2122C118.745 18.344 117.129 21.9736 115.663 25.291C114.16 28.5693 113.032 31.5355 113.145 31.8477C113.671 33.2137 114.987 31.1452 118.482 23.3786L122.165 15.1828H125.097H127.991L127.465 16.4317C127.202 17.1342 125.172 21.6614 122.992 26.5009L119.008 35.2821L116.001 35.3992C112.957 35.5163 112.957 35.5163 113.408 34.6577L113.822 33.7991L112.431 34.6967C110.815 35.7114 108.184 35.9456 107.244 35.126C106.868 34.8528 106.605 34.1113 106.605 33.4869C106.605 32.8624 108.334 28.4913 110.439 23.7689L114.273 15.1828H117.204H120.136L119.234 17.2122Z" fill="#157439"/>
<path d="M29.4447 27.7498C27.2273 30.0134 25.0474 33.1356 25.0474 34.0333C25.0474 34.0723 25.4984 34.1503 26.0621 34.1113C26.8514 34.1113 27.3024 33.7601 27.8662 32.7453C28.9186 30.872 32.6394 27.1253 34.0676 26.5009C35.3831 25.9545 35.1951 25.5252 33.4287 25.1349C32.3011 24.9007 32.0381 25.0959 29.4447 27.7498Z" fill="#157439"/>
<path d="M41.3213 29.1157C40.1186 29.3499 40.1562 30.7939 41.3213 30.7939C41.9603 30.7939 42.1858 30.5598 42.2609 29.8182C42.2985 29.2719 42.2985 28.8816 42.2234 28.8816C42.1858 28.9206 41.7723 29.0377 41.3213 29.1157Z" fill="#157439"/>
<path d="M40.8328 33.4478C40.8328 35.2822 41.3965 35.6724 41.6972 33.9942C41.81 33.3698 41.6972 32.7063 41.3589 32.3551C40.9079 31.8867 40.8328 32.0038 40.8328 33.4478Z" fill="#157439"/>
<path d="M41.0958 37.8189C41.2086 38.2482 41.3589 38.5995 41.4341 38.5995C41.5093 38.5995 41.5844 38.2482 41.5844 37.8189C41.5844 37.3896 41.4341 37.0384 41.2462 37.0384C41.0582 37.0384 40.9831 37.3896 41.0958 37.8189Z" fill="#157439"/>
<path d="M66.0518 39.1069C65.8639 39.5752 65.5632 41.6827 65.3377 43.7512C65.1122 45.8197 64.6612 48.0443 64.3605 48.7077C64.0223 49.3322 63.7592 50.0737 63.7592 50.3079C63.7592 50.5421 63.0827 51.9471 62.2558 53.4301C60.5645 56.4353 60.4893 56.7865 61.3914 57.8012C61.9927 58.5037 61.9176 58.6208 59.888 60.6113C58.7229 61.7431 56.8437 63.3432 55.7537 64.1238C53.6866 65.5288 53.1228 66.3093 53.4235 67.207C53.649 67.7924 48.9885 69.6267 46.5455 69.9389C45.6435 70.056 44.8167 70.2121 44.7415 70.3292C44.6663 70.4073 44.7039 70.9927 44.8167 71.6562C45.0422 72.788 45.0798 72.827 46.7711 72.6319C49.2516 72.3587 54.6638 70.2121 57.8584 68.2217C59.3242 67.285 61.6169 65.4507 62.9323 64.2018L65.3001 61.8992L64.4733 61.0015L63.6464 60.0649L65.225 57.6842C66.8035 55.3035 67.8935 51.4787 67.1042 51.1665C66.6156 50.9714 66.6908 50.464 67.2921 49.8396C67.8559 49.2151 68.119 47.5369 68.4948 42.5023L68.7579 39.1849L67.5552 38.7166C66.4653 38.2873 66.3149 38.3263 66.0518 39.1069Z" fill="#157439"/>
<path d="M6.7436 39.6923C6.4805 39.8484 6.33017 40.5119 6.40534 41.1363C6.4805 41.7998 6.66843 43.6341 6.81876 45.2343C7.08185 48.5516 8.20939 52.6886 9.56242 55.5767C11.8927 60.5332 13.396 62.7968 14.3732 62.7968C14.5987 62.7968 15.0497 62.4065 15.3504 61.9772C15.839 61.1577 15.9142 61.1967 17.6055 63.2652C20.3867 66.6606 28.3546 71.8123 31.4365 72.2416C32.752 72.3977 32.8271 71.6171 31.5493 71.3439C30.1962 71.0707 26.1747 68.9242 23.7317 67.246C21.3639 65.6068 19.7854 64.0847 17.0417 60.7283C15.8014 59.2843 14.5987 58.1135 14.3356 58.1135C14.035 58.1135 13.396 57.5281 12.9074 56.8256C10.7651 53.8204 9.07383 48.1614 8.6604 42.5804C8.39731 39.302 8.05905 38.8337 6.7436 39.6923Z" fill="#157439"/>
<path d="M45.1173 40.2387C45.0046 40.4338 44.5535 40.5509 44.1025 40.5899C43.3508 40.629 43.3508 40.668 44.2153 40.9412C44.7415 41.0973 45.7938 41.2534 46.5831 41.2924C47.7106 41.3315 47.9737 41.2144 47.9737 40.5899C47.9737 39.9655 47.7482 39.8484 46.6207 39.8874C45.869 39.9265 45.1925 40.0826 45.1173 40.2387Z" fill="#157439"/>
<path d="M49.1013 40.7851C49.1013 41.6827 49.2141 41.7608 50.5295 41.6437C51.6571 41.5656 51.9577 41.3705 52.0329 40.629C52.1457 39.8484 51.9953 39.7703 50.6423 39.7703C49.2517 39.7703 49.1013 39.8484 49.1013 40.7851Z" fill="#157439"/>
<path d="M32.8649 41.995C32.0004 42.2291 32.0004 42.5414 32.9776 44.6098C33.8045 46.4441 34.7065 47.3028 36.4354 47.7321C37.7132 48.0443 37.7508 47.4979 36.5481 45.8587C36.0971 45.1952 35.4582 43.9854 35.1575 43.1658C34.6689 41.7608 34.3307 41.5657 32.8649 41.995Z" fill="#157439"/>
<path d="M35.2327 42.3462C35.2327 42.7755 35.3455 42.8926 35.4582 42.5804C35.571 42.3072 35.5334 41.9559 35.4206 41.8388C35.3079 41.6827 35.1951 41.9169 35.2327 42.3462Z" fill="#157439"/>
<path d="M31.4365 48.5516C31.4365 48.8638 31.5869 49.137 31.8124 49.137C32.0003 49.137 32.0755 48.8638 31.9627 48.5516C31.8124 48.2394 31.662 47.9662 31.5869 47.9662C31.5117 47.9662 31.4365 48.2394 31.4365 48.5516Z" fill="#157439"/>
<path d="M17.756 51.9471C18.9587 55.9279 24.3332 61.8992 28.9185 64.3579C32.3011 66.1532 32.94 66.2703 32.94 65.0214C32.94 64.3579 32.3763 63.8896 30.234 62.8359C26.25 60.8064 23.7319 58.3867 20.1614 53.0789C18.7707 51.0104 17.2298 50.3079 17.756 51.9471Z" fill="#157439"/>
<path d="M69.1337 59.3624C66.6155 63.7335 61.3162 68.7681 56.6933 71.1878C55.1147 72.0074 54.7389 72.3977 54.7389 73.1782V74.1539L57.1067 72.905C60.9779 70.7975 62.6692 69.4706 66.0142 65.9581C69.7351 62.0553 71.7646 58.9721 71.2008 57.9964C70.6747 56.9816 70.4116 57.1768 69.1337 59.3624Z" fill="#157439"/>
<path d="M71.5767 59.4014C70.4492 61.8211 66.3525 66.7386 63.3833 69.1584C61.7672 70.4853 59.0236 72.3587 57.2947 73.2953C53.7242 75.2858 53.7993 75.2077 54.0624 75.5199C54.4759 75.9102 60.2638 72.5928 63.3082 70.2512C64.9619 68.9242 67.1794 66.8167 68.2317 65.5678C70.0734 63.3822 72.7794 59.1282 72.7794 58.4257C72.7794 57.6842 72.1029 58.2306 71.5767 59.4014Z" fill="#157439"/>
<path d="M71.9149 63.9286C70.6747 66.1142 66.0518 70.8366 63.1954 72.827C60.0383 75.0516 55.4906 77.4713 53.912 77.8226C52.6342 78.0958 52.559 78.8763 53.7241 79.6959C54.551 80.2423 54.8141 80.1642 58.1591 78.5251C62.8571 76.2224 65.6008 74.232 69.1337 70.6414C71.8398 67.9485 75.4103 63.5774 75.4103 63.031C75.4103 62.9139 74.7713 62.7968 73.9821 62.7968C72.817 62.7968 72.4411 62.992 71.9149 63.9286Z" fill="#157439"/>
</svg>
